# xmcd CD database file
#
# Track frame offsets:
#	150
#	15067
#	29879
#	36865
#	63100
#
# Disc length: 1016 seconds
#
# Revision: 0
# Processed by: cddbd v1.5.1PL0 Copyright (c) Steve Scherf et al.
# Submitted via: CDex 1.51
#
DISCID=3303f605
DTITLE=とらのあな - ここだよ。
DYEAR=2004
DGENRE=JPop
TTITLE0=ここだよ。 by UNDER17
TTITLE1=ここだよ。 by 虎々（松来未祐）
TTITLE2=ここだよ。 by とらみ（桃井はるこ）
TTITLE3=ここだよ。 Off Vocal
TTITLE4=とらのあな。 TVCM
EXTD=YEAR: 2004
EXTT0=
EXTT1=
EXTT2=
EXTT3=
EXTT4=
PLAYORDER=
